<?xml version="1.0" encoding="UTF-8"?>
<svg id="Livello_2" data-name="Livello 2" xmlns="http://www.w3.org/2000/svg" viewBox="0 0 275.05 70.22">
  <defs>
    <style>
      .cls-1 {
        fill: #1d1d1b;
      }
    </style>
  </defs>
  <g id="Nero">
    <path id="P" class="cls-1" d="m214.64,2.08h30.3c17.89,0,30.11,7.98,30.11,23.95v.19c0,16.26-12.41,24.91-30.59,24.91h-7.31v18.28h-22.51V2.08Zm28.57,32.99c5.77,0,9.62-2.6,9.62-7.41v-.19c0-4.91-3.56-7.41-9.52-7.41h-6.16v15.01h6.06Z"/>
    <path id="A" class="cls-1" d="m170.97,2.15l-38.47,66.63h76.94L170.97,2.15Zm0,31.52l9.74,16.87h-19.48l9.74-16.87Z"/>
    <path id="L" class="cls-1" d="m73.28,2.08h22.51v48.1h31.65v19.24h-54.16V2.08Z"/>
    <path id="G" class="cls-1" d="m0,35.3v-.19C0,15.01,15.87,0,37.13,0c11.54,0,20.87,3.85,28.18,10.2l-12.6,15.2c-4.42-3.75-9.33-5.87-14.91-5.87-8.75,0-15.1,6.73-15.1,15.87v.19c0,9.52,6.64,16.06,16.06,16.06,3.85,0,5.96-.58,7.7-1.54v-6.73h-11.54v-14.43h32.61v31.17c-7.31,5.96-17.51,10.1-29.72,10.1C16.83,70.22,0,56.18,0,35.3Z"/>
  </g>
</svg>